<svg width="25" height="24" viewBox="0 0 25 24" fill="none" xmlns="http://www.w3.org/2000/svg">
<path d="M20.3359 7H15.3359V4C15.3359 2.9 14.4359 2 13.3359 2H11.3359C10.2359 2 9.33594 2.9 9.33594 4V7H4.33594C3.23594 7 2.33594 7.9 2.33594 9V20C2.33594 21.1 3.23594 22 4.33594 22H20.3359C21.4359 22 22.3359 21.1 22.3359 20V9C22.3359 7.9 21.4359 7 20.3359 7ZM9.33594 12C10.1659 12 10.8359 12.67 10.8359 13.5C10.8359 14.33 10.1659 15 9.33594 15C8.50594 15 7.83594 14.33 7.83594 13.5C7.83594 12.67 8.50594 12 9.33594 12ZM12.3359 18H6.33594V17.25C6.33594 16.25 8.33594 15.75 9.33594 15.75C10.3359 15.75 12.3359 16.25 12.3359 17.25V18ZM13.3359 9H11.3359V4H13.3359V9ZM18.3359 16.5H14.3359V15H18.3359V16.5ZM18.3359 13.5H14.3359V12H18.3359V13.5Z" fill="currentColor"/>
</svg>
