<svg width="24" height="24" viewBox="0 0 24 24" fill="none" xmlns="http://www.w3.org/2000/svg">
<path d="M17 4.95748C17.83 4.95748 18.5 4.28748 18.5 3.45748C18.5 2.79748 17.84 1.81748 17.39 1.23748C17.19 0.97748 16.8 0.97748 16.6 1.23748C16.16 1.81748 15.5 2.79748 15.5 3.45748C15.5 4.28748 16.17 4.95748 17 4.95748ZM12 4.95748C12.83 4.95748 13.5 4.28748 13.5 3.45748C13.5 2.79748 12.84 1.81748 12.39 1.23748C12.19 0.97748 11.8 0.97748 11.6 1.23748C11.16 1.81748 10.5 2.79748 10.5 3.45748C10.5 4.28748 11.17 4.95748 12 4.95748ZM7 4.95748C7.83 4.95748 8.5 4.28748 8.5 3.45748C8.5 2.79748 7.84 1.81748 7.39 1.23748C7.19 0.97748 6.8 0.97748 6.6 1.23748C6.16 1.81748 5.5 2.79748 5.5 3.45748C5.5 4.28748 6.17 4.95748 7 4.95748ZM18.92 7.96748C18.72 7.37748 18.16 6.95748 17.5 6.95748H6.5C5.84 6.95748 5.29 7.37748 5.08 7.96748L3.11 13.6375C3.04 13.8475 3 14.0675 3 14.2975V21.4575C3 22.2875 3.67 22.9575 4.5 22.9575C5.33 22.9575 6 22.2875 6 21.4575V20.9575H18V21.4575C18 22.2775 18.67 22.9575 19.5 22.9575C20.32 22.9575 21 22.2875 21 21.4575V14.2975C21 14.0775 20.96 13.8475 20.89 13.6375L18.92 7.96748ZM6.5 17.9575C5.67 17.9575 5 17.2875 5 16.4575C5 15.6275 5.67 14.9575 6.5 14.9575C7.33 14.9575 8 15.6275 8 16.4575C8 17.2875 7.33 17.9575 6.5 17.9575ZM17.5 17.9575C16.67 17.9575 16 17.2875 16 16.4575C16 15.6275 16.67 14.9575 17.5 14.9575C18.33 14.9575 19 15.6275 19 16.4575C19 17.2875 18.33 17.9575 17.5 17.9575ZM5 12.9575L6.27 9.13748C6.41 8.73748 6.79 8.45748 7.22 8.45748H16.78C17.21 8.45748 17.59 8.73748 17.73 9.13748L19 12.9575H5Z" fill="currentColor"/>
</svg>
