<svg width="40" height="40" viewBox="0 0 40 40" fill="none" xmlns="http://www.w3.org/2000/svg">
<rect width="40" height="40" fill="#F5F5F5"/>
<g clip-path="url(#clip0_751_38745)">
<rect width="1440" height="812" transform="translate(-393 -204)" fill="white"/>
<rect x="-17" y="-22" width="924" height="548" rx="10" fill="white"/>
<rect width="40" height="40" rx="20" fill="#0B68E1"/>
<path d="M25 12.958C25.83 12.958 26.5 12.288 26.5 11.458C26.5 10.798 25.84 9.81797 25.39 9.23797C25.19 8.97797 24.8 8.97797 24.6 9.23797C24.16 9.81797 23.5 10.798 23.5 11.458C23.5 12.288 24.17 12.958 25 12.958ZM20 12.958C20.83 12.958 21.5 12.288 21.5 11.458C21.5 10.798 20.84 9.81797 20.39 9.23797C20.19 8.97797 19.8 8.97797 19.6 9.23797C19.16 9.81797 18.5 10.798 18.5 11.458C18.5 12.288 19.17 12.958 20 12.958ZM15 12.958C15.83 12.958 16.5 12.288 16.5 11.458C16.5 10.798 15.84 9.81797 15.39 9.23797C15.19 8.97797 14.8 8.97797 14.6 9.23797C14.16 9.81797 13.5 10.798 13.5 11.458C13.5 12.288 14.17 12.958 15 12.958ZM26.92 15.968C26.72 15.378 26.16 14.958 25.5 14.958H14.5C13.84 14.958 13.29 15.378 13.08 15.968L11.11 21.638C11.04 21.848 11 22.068 11 22.298V29.458C11 30.288 11.67 30.958 12.5 30.958C13.33 30.958 14 30.288 14 29.458V28.958H26V29.458C26 30.278 26.67 30.958 27.5 30.958C28.32 30.958 29 30.288 29 29.458V22.298C29 22.078 28.96 21.848 28.89 21.638L26.92 15.968ZM14.5 25.958C13.67 25.958 13 25.288 13 24.458C13 23.628 13.67 22.958 14.5 22.958C15.33 22.958 16 23.628 16 24.458C16 25.288 15.33 25.958 14.5 25.958ZM25.5 25.958C24.67 25.958 24 25.288 24 24.458C24 23.628 24.67 22.958 25.5 22.958C26.33 22.958 27 23.628 27 24.458C27 25.288 26.33 25.958 25.5 25.958ZM13 20.958L14.27 17.138C14.41 16.738 14.79 16.458 15.22 16.458H24.78C25.21 16.458 25.59 16.738 25.73 17.138L27 20.958H13Z" fill="white"/>
</g>
<defs>
<clipPath id="clip0_751_38745">
<rect width="1440" height="812" fill="white" transform="translate(-393 -204)"/>
</clipPath>
</defs>
</svg>
