<svg width="40" height="40" viewBox="0 0 40 40" fill="none" xmlns="http://www.w3.org/2000/svg">
<rect width="40" height="40" fill="#F5F5F5"/>
<g clip-path="url(#clip0_751_38745)">
<rect width="1440" height="812" transform="translate(-312 -322)" fill="white"/>
<g filter="url(#filter0_d_751_38745)">
<rect x="-32" y="-27" width="1128" height="93" rx="16" fill="white"/>
<rect width="40" height="40" rx="20" fill="#0B68E1"/>
<path d="M20.1599 11.4492H19.8399L17.2099 16.6992H22.7899L20.1599 11.4492Z" fill="white"/>
<path d="M24.4599 16.6992H29.6199L27.5499 12.5592C27.2099 11.8792 26.5199 11.4492 25.7599 11.4492H21.8299L24.4599 16.6992Z" fill="white"/>
<path d="M29.3799 18.1992H20.7499V28.5492L29.3799 18.1992Z" fill="white"/>
<path d="M19.2499 28.5492V18.1992H10.6199L19.2499 28.5492Z" fill="white"/>
<path d="M15.5399 16.6992L18.1599 11.4492H14.2399C13.4799 11.4492 12.7899 11.8792 12.4499 12.5592L10.3799 16.6992H15.5399Z" fill="white"/>
</g>
</g>
<defs>
<filter id="filter0_d_751_38745" x="-43" y="-36" width="1150" height="115" filterUnits="userSpaceOnUse" color-interpolation-filters="sRGB">
<feFlood flood-opacity="0" result="BackgroundImageFix"/>
<feColorMatrix in="SourceAlpha" type="matrix" values="0 0 0 0 0 0 0 0 0 0 0 0 0 0 0 0 0 0 127 0" result="hardAlpha"/>
<feMorphology radius="2" operator="erode" in="SourceAlpha" result="effect1_dropShadow_751_38745"/>
<feOffset dy="2"/>
<feGaussianBlur stdDeviation="6.5"/>
<feColorMatrix type="matrix" values="0 0 0 0 0.126082 0 0 0 0 0.158639 0 0 0 0 0.218327 0 0 0 0.12 0"/>
<feBlend mode="normal" in2="BackgroundImageFix" result="effect1_dropShadow_751_38745"/>
<feBlend mode="normal" in="SourceGraphic" in2="effect1_dropShadow_751_38745" result="shape"/>
</filter>
<clipPath id="clip0_751_38745">
<rect width="1440" height="812" fill="white" transform="translate(-312 -322)"/>
</clipPath>
</defs>
</svg>
