<svg width="16" height="16" viewBox="0 0 16 16" fill="none" xmlns="http://www.w3.org/2000/svg">
<rect width="16" height="16" fill="#F5F5F5"/>
<path d="M-378 -656C-378 -689.137 -351.137 -716 -318 -716H1940C1973.14 -716 2000 -689.137 2000 -656V455C2000 463.837 1992.84 471 1984 471H-362C-370.837 471 -378 463.837 -378 455V-656Z" fill="white"/>
<rect x="-307.5" y="-173.5" width="2155" height="543" rx="4.5" stroke="#9747FF" stroke-dasharray="10 5"/>
<path d="M-292 -10C-292 -13.3137 -289.314 -16 -286 -16H22C25.3137 -16 28 -13.3137 28 -10V26C28 29.3137 25.3137 32 22 32H-286C-289.314 32 -292 29.3137 -292 26V-10Z" fill="white"/>
<path d="M-291.5 -10C-291.5 -13.0376 -289.038 -15.5 -286 -15.5H22C25.0375 -15.5 27.5 -13.0376 27.5 -10V26C27.5 29.0376 25.0376 31.5 22 31.5H-286C-289.038 31.5 -291.5 29.0376 -291.5 26V-10Z" stroke="#0B68E1" stroke-opacity="0.3"/>
<path d="M4 6L8 11L12 6H4Z" fill="black"/>
</svg>
