<svg width="24" height="24" viewBox="0 0 24 24" fill="none" xmlns="http://www.w3.org/2000/svg">
<path d="M18.0757 9.842C17.6857 10.232 17.0557 10.232 16.6657 9.842L16.3157 9.492L13.414 12.3937L14.2443 13.2241H15.5443C16.0743 13.2241 16.5843 13.4341 16.9543 13.8141L21.6743 18.5341C22.0643 18.9241 22.0643 19.5541 21.6743 19.9441L19.5543 22.0641C19.1643 22.4541 18.5343 22.4541 18.1443 22.0641L13.4243 17.3441C13.0443 16.9641 12.8343 16.4641 12.8343 15.9341V14.6441L12.0052 13.8025L11.1657 14.642V15.932C11.1657 16.462 10.9557 16.962 10.5757 17.342L5.8557 22.062C5.4657 22.452 4.8357 22.452 4.4457 22.062L2.3257 19.942C1.9357 19.552 1.9357 18.922 2.3257 18.532L7.0457 13.812C7.4157 13.432 7.9257 13.222 8.4557 13.222H9.7557L10.6057 12.372L6.4757 8.242H5.4757C5.2057 8.242 4.9557 8.142 4.7657 7.952L2.7457 5.922C2.3557 5.532 2.3557 4.902 2.7457 4.512L4.1657 3.092C4.5557 2.702 5.1857 2.702 5.5757 3.092L7.5957 5.122C7.7757 5.312 7.8857 5.562 7.8857 5.832V6.832L11.9957 10.962L14.8857 8.072L14.5357 7.722C14.1457 7.332 14.1457 6.702 14.5357 6.312L15.2457 5.602H12.7057C12.0857 5.602 11.7557 4.842 12.2057 4.392L14.7457 1.852C15.1957 1.402 15.9557 1.732 15.9557 2.352V4.892L16.6657 4.182C17.0557 3.792 17.6857 3.792 18.0757 4.182L20.9057 7.012C22.0757 8.182 22.0757 10.082 20.9057 11.252L18.7857 9.132L18.0757 9.842Z" fill="currentColor"/>
</svg>
