<svg width="40" height="40" viewBox="0 0 40 40" fill="none" xmlns="http://www.w3.org/2000/svg">
<rect width="40" height="40" fill="#F5F5F5"/>
<g clip-path="url(#clip0_751_38745)">
<rect width="1440" height="812" transform="translate(-312 -435)" fill="white"/>
<g filter="url(#filter0_d_751_38745)">
<rect x="-32" y="-27" width="1128" height="93" rx="16" fill="white"/>
<rect width="40" height="40" rx="20" fill="#0B68E1"/>
<path fill-rule="evenodd" clip-rule="evenodd" d="M19.5454 14.2841C19.5451 14.3222 19.545 14.3596 19.545 14.3962C19.545 14.4087 19.5451 14.4211 19.5453 14.4334C19.5437 14.4875 19.5384 14.5248 19.5333 14.5492C19.519 14.5524 19.5 14.5558 19.4752 14.5588C19.4459 14.5622 19.4141 14.5644 19.38 14.5652H19.3171C18.9831 14.5579 18.4527 14.4373 17.7166 14.1694C16.8091 13.8392 16.395 13.6466 16.1697 13.4375C16.0361 13.3134 15.9095 13.1341 15.9095 12.5283C15.9095 11.9747 16.0549 11.5544 16.301 11.3018C16.5179 11.0791 16.9639 10.8333 17.9315 10.9373C18.6071 11.0769 18.9922 11.516 19.2363 12.1745C19.4833 12.8407 19.5399 13.6345 19.5454 14.2841ZM20 11.6373C19.6619 10.8666 19.077 10.2259 18.0697 10.0341C15.7129 9.76359 15.0004 11.1508 15.0004 12.5283C15.0004 13.6463 15.3673 14.1323 16.2607 14.5652H10.9091C10.407 14.5652 10 14.974 10 15.4783V19.9944C10 20.011 10.0009 20.0273 10.0026 20.0435H19.5375V15.4702C19.5375 15.4702 20.2762 15.4513 20.4466 15.4686V20.0435H29.9974C29.9991 20.0273 30 20.011 30 19.9944V15.4783C30 14.974 29.593 14.5652 29.0909 14.5652H23.7393C24.6327 14.1323 24.9996 13.6463 24.9996 12.5283C24.9996 11.1508 24.2871 9.76359 21.9303 10.0341C20.923 10.2259 20.3381 10.8666 20 11.6373ZM20.4547 14.4334C20.4549 14.4211 20.455 14.4087 20.455 14.3962C20.455 14.3596 20.4549 14.3222 20.4546 14.2841C20.4601 13.6345 20.5167 12.8407 20.7637 12.1745C21.0078 11.516 21.3929 11.0769 22.0685 10.9373C23.0361 10.8333 23.4821 11.0791 23.699 11.3018C23.9451 11.5544 24.0905 11.9747 24.0905 12.5283C24.0905 13.1341 23.9639 13.3134 23.8303 13.4375C23.605 13.6466 23.1909 13.8392 22.2834 14.1694C21.5473 14.4373 21.0169 14.5579 20.6829 14.5652H20.62C20.5859 14.5644 20.5541 14.5622 20.5248 14.5588C20.5 14.5558 20.481 14.5524 20.4667 14.5492C20.4616 14.5248 20.4564 14.4875 20.4547 14.4334ZM29.0909 20.9565H20.4466V31H28.1818C28.6839 31 29.0909 30.5912 29.0909 30.087V20.9565ZM10.9091 20.9565H19.5375V31H11.8182C11.3161 31 10.9091 30.5912 10.9091 30.087V20.9565Z" fill="white"/>
</g>
</g>
<defs>
<filter id="filter0_d_751_38745" x="-43" y="-36" width="1150" height="115" filterUnits="userSpaceOnUse" color-interpolation-filters="sRGB">
<feFlood flood-opacity="0" result="BackgroundImageFix"/>
<feColorMatrix in="SourceAlpha" type="matrix" values="0 0 0 0 0 0 0 0 0 0 0 0 0 0 0 0 0 0 127 0" result="hardAlpha"/>
<feMorphology radius="2" operator="erode" in="SourceAlpha" result="effect1_dropShadow_751_38745"/>
<feOffset dy="2"/>
<feGaussianBlur stdDeviation="6.5"/>
<feColorMatrix type="matrix" values="0 0 0 0 0.126082 0 0 0 0 0.158639 0 0 0 0 0.218327 0 0 0 0.12 0"/>
<feBlend mode="normal" in2="BackgroundImageFix" result="effect1_dropShadow_751_38745"/>
<feBlend mode="normal" in="SourceGraphic" in2="effect1_dropShadow_751_38745" result="shape"/>
</filter>
<clipPath id="clip0_751_38745">
<rect width="1440" height="812" fill="white" transform="translate(-312 -435)"/>
</clipPath>
</defs>
</svg>
