<svg width="25" height="24" viewBox="0 0 25 24" fill="none" xmlns="http://www.w3.org/2000/svg">
<path fill-rule="evenodd" clip-rule="evenodd" d="M2.77511 12.4827C2.40152 12.1092 2.19093 11.6029 2.18933 11.0746L2.16798 4.00638C2.16463 2.8995 3.06098 2.0004 4.16787 2.00034L11.2628 2C11.7933 1.99997 12.3021 2.21069 12.6772 2.58579L21.7127 11.6213C22.4937 12.4024 22.4937 13.6687 21.7127 14.4497L14.6416 21.5208C13.8605 22.3018 12.5942 22.3018 11.8132 21.5208L2.77511 12.4827ZM9.19397 12.6208C10.1703 11.6445 11.7532 11.6445 12.7295 12.6208L13.243 13.1343L13.7565 12.6208C14.7328 11.6445 16.3157 11.6445 17.292 12.6208C18.2683 13.5971 18.2683 15.18 17.292 16.1563L16.7785 16.6698L16.7838 16.6751L13.4722 19.9867C13.409 20.0499 13.3258 20.0808 13.243 20.0794C13.1602 20.0808 13.077 20.0499 13.0138 19.9867L9.70216 16.6751L9.70745 16.6698L9.19397 16.1563C8.21766 15.18 8.21766 13.5971 9.19397 12.6208ZM5.72855 7.0379C6.55764 7.0379 7.22974 6.36579 7.22974 5.53671C7.22974 4.70763 6.55764 4.03552 5.72855 4.03552C4.89947 4.03552 4.22736 4.70763 4.22736 5.53671C4.22736 6.36579 4.89947 7.0379 5.72855 7.0379Z" fill="currentColor"/>
</svg>
