<svg width="18" height="18" viewBox="0 0 18 18" fill="none" xmlns="http://www.w3.org/2000/svg">
<path d="M16.875 0H9.75C9.54375 0 9.375 0.16875 9.375 0.375V7.5C9.375 7.70625 9.54375 7.875 9.75 7.875H16.875C17.0812 7.875 17.25 7.70625 17.25 7.5V0.375C17.25 0.16875 17.0812 0 16.875 0ZM16.875 9.375H9.75C9.54375 9.375 9.375 9.54375 9.375 9.75V16.875C9.375 17.0812 9.54375 17.25 9.75 17.25H16.875C17.0812 17.25 17.25 17.0812 17.25 16.875V9.75C17.25 9.54375 17.0812 9.375 16.875 9.375ZM7.5 0H0.375C0.16875 0 0 0.16875 0 0.375V7.5C0 7.70625 0.16875 7.875 0.375 7.875H7.5C7.70625 7.875 7.875 7.70625 7.875 7.5V0.375C7.875 0.16875 7.70625 0 7.5 0ZM7.5 9.375H0.375C0.16875 9.375 0 9.54375 0 9.75V16.875C0 17.0812 0.16875 17.25 0.375 17.25H7.5C7.70625 17.25 7.875 17.0812 7.875 16.875V9.75C7.875 9.54375 7.70625 9.375 7.5 9.375Z" fill="currentColor"/>
</svg>
