<svg width="17" height="17" viewBox="0 0 17 17" fill="none" xmlns="http://www.w3.org/2000/svg">
<path d="M16.25 0H0.416667C0.30616 0 0.200179 0.0438988 0.122039 0.122039C0.0438988 0.200179 0 0.30616 0 0.416667V16.25C0 16.3605 0.0438988 16.4665 0.122039 16.5446C0.200179 16.6228 0.30616 16.6667 0.416667 16.6667H16.25C16.3605 16.6667 16.4665 16.6228 16.5446 16.5446C16.6228 16.4665 16.6667 16.3605 16.6667 16.25V0.416667C16.6667 0.30616 16.6228 0.200179 16.5446 0.122039C16.4665 0.0438988 16.3605 0 16.25 0ZM5.41667 15.8333H0.833333V11.25H5.41667V15.8333ZM5.41667 10.4167H0.833333V6.25H5.41667V10.4167ZM5.41667 5.41667H0.833333V0.833333H5.41667V5.41667ZM10.4167 15.8333H6.25V11.25H10.4167V15.8333ZM10.4167 10.4167H6.25V6.25H10.4167V10.4167ZM10.4167 5.41667H6.25V0.833333H10.4167V5.41667ZM15.8333 15.8333H11.25V11.25H15.8333V15.8333ZM15.8333 10.4167H11.25V6.25H15.8333V10.4167ZM15.8333 5.41667H11.25V0.833333H15.8333V5.41667Z" fill="currentColor"/>
</svg>
