<svg width="25" height="25" viewBox="0 0 25 25" fill="none" xmlns="http://www.w3.org/2000/svg">
<path d="M19.2334 4.5H15.0534C14.6334 3.34 13.5334 2.5 12.2334 2.5C10.9334 2.5 9.8334 3.34 9.4134 4.5H5.2334C4.1334 4.5 3.2334 5.4 3.2334 6.5V20.5C3.2334 21.6 4.1334 22.5 5.2334 22.5H19.2334C20.3334 22.5 21.2334 21.6 21.2334 20.5V6.5C21.2334 5.4 20.3334 4.5 19.2334 4.5ZM12.2334 4.5C12.7834 4.5 13.2334 4.95 13.2334 5.5C13.2334 6.05 12.7834 6.5 12.2334 6.5C11.6834 6.5 11.2334 6.05 11.2334 5.5C11.2334 4.95 11.6834 4.5 12.2334 4.5ZM9.5234 17.79L6.9334 15.2C6.5434 14.81 6.5434 14.18 6.9334 13.79C7.3234 13.4 7.9534 13.4 8.3434 13.79L10.2334 15.67L16.1134 9.79C16.5034 9.4 17.1334 9.4 17.5234 9.79C17.9134 10.18 17.9134 10.81 17.5234 11.2L10.9334 17.79C10.5534 18.18 9.9134 18.18 9.5234 17.79Z" fill="currentColor"/>
</svg>
