<svg width="24" height="24" viewBox="0 0 24 24" fill="none" xmlns="http://www.w3.org/2000/svg">
<path d="M10.01 20.9637C10.01 22.0893 10.9 23 12 23C13.1 23 13.99 22.0893 13.99 20.9637H10.01ZM12 5.60465C14.76 5.60465 17 7.89674 17 10.7209V17.8837H7V10.7209C7 7.89674 9.24 5.60465 12 5.60465ZM12 1C11.17 1 10.5 1.68558 10.5 2.53488V3.73209C7.36 4.42791 5 7.29302 5 10.7209V16.8605L3 18.907V19.9302H21V18.907L19 16.8605V10.7209C19 7.29302 16.64 4.42791 13.5 3.73209V2.53488C13.5 1.68558 12.83 1 12 1Z" fill="#747677"/>
<circle cx="18" cy="4" r="3" fill="#BFFA00"/>
</svg>
