<svg width="24" height="24" viewBox="0 0 24 24" fill="none" xmlns="http://www.w3.org/2000/svg">
<rect width="24" height="24" fill="#F5F5F5"/>
<g clip-path="url(#clip0_751_38745)">
<rect width="1440" height="1329" transform="translate(-509 -530)" fill="white"/>
<g filter="url(#filter0_d_751_38745)">
<rect x="-229" y="-270" width="1128" height="724" rx="16" fill="white"/>
<rect x="-133" y="-35" width="360" height="149" rx="16" fill="white"/>
<path fill-rule="evenodd" clip-rule="evenodd" d="M20.56 9.68L23 12.46L20.56 15.24L20.9 18.92L17.29 19.74L15.4 22.92L12 21.46L8.6 22.93L6.71 19.75L3.1 18.93L3.44 15.24L1 12.46L3.44 9.67L3.1 5.99L6.71 5.18L8.6 2L12 3.46L15.4 2L17.29 5.18L20.9 6L20.56 9.68ZM8.248 12.724C8.552 12.924 8.896 13.024 9.28 13.024C9.664 13.024 10.008 12.924 10.312 12.724C10.616 12.524 10.856 12.24 11.032 11.872C11.208 11.496 11.296 11.048 11.296 10.528C11.296 9.744 11.104 9.136 10.72 8.704C10.336 8.272 9.856 8.056 9.28 8.056C8.704 8.056 8.224 8.272 7.84 8.704C7.456 9.136 7.264 9.744 7.264 10.528C7.264 11.048 7.352 11.496 7.528 11.872C7.704 12.24 7.944 12.524 8.248 12.724ZM9.7 11.608C9.58 11.8 9.44 11.896 9.28 11.896C9.128 11.896 8.988 11.8 8.86 11.608C8.74 11.416 8.68 11.056 8.68 10.528C8.68 10 8.74 9.644 8.86 9.46C8.988 9.276 9.128 9.184 9.28 9.184C9.44 9.184 9.58 9.276 9.7 9.46C9.82 9.644 9.88 10 9.88 10.528C9.88 11.056 9.82 11.416 9.7 11.608ZM13.744 8.056L9.568 16.144H10.72L14.896 8.056H13.744ZM14.128 15.844C14.432 16.044 14.776 16.144 15.16 16.144C15.544 16.144 15.888 16.044 16.192 15.844C16.496 15.644 16.736 15.36 16.912 14.992C17.088 14.616 17.176 14.168 17.176 13.648C17.176 12.864 16.984 12.256 16.6 11.824C16.216 11.392 15.736 11.176 15.16 11.176C14.584 11.176 14.104 11.392 13.72 11.824C13.336 12.256 13.144 12.864 13.144 13.648C13.144 14.168 13.232 14.616 13.408 14.992C13.584 15.36 13.824 15.644 14.128 15.844ZM15.58 14.728C15.46 14.92 15.32 15.016 15.16 15.016C15.008 15.016 14.868 14.92 14.74 14.728C14.62 14.536 14.56 14.176 14.56 13.648C14.56 13.12 14.62 12.764 14.74 12.58C14.868 12.396 15.008 12.304 15.16 12.304C15.32 12.304 15.46 12.396 15.58 12.58C15.7 12.764 15.76 13.12 15.76 13.648C15.76 14.176 15.7 14.536 15.58 14.728Z" fill="currentColor"/>
</g>
</g>
<defs>
<filter id="filter0_d_751_38745" x="-240" y="-279" width="1150" height="746" filterUnits="userSpaceOnUse" color-interpolation-filters="sRGB">
<feFlood flood-opacity="0" result="BackgroundImageFix"/>
<feColorMatrix in="SourceAlpha" type="matrix" values="0 0 0 0 0 0 0 0 0 0 0 0 0 0 0 0 0 0 127 0" result="hardAlpha"/>
<feMorphology radius="2" operator="erode" in="SourceAlpha" result="effect1_dropShadow_751_38745"/>
<feOffset dy="2"/>
<feGaussianBlur stdDeviation="6.5"/>
<feColorMatrix type="matrix" values="0 0 0 0 0.126082 0 0 0 0 0.158639 0 0 0 0 0.218327 0 0 0 0.12 0"/>
<feBlend mode="normal" in2="BackgroundImageFix" result="effect1_dropShadow_751_38745"/>
<feBlend mode="normal" in="SourceGraphic" in2="effect1_dropShadow_751_38745" result="shape"/>
</filter>
<clipPath id="clip0_751_38745">
<rect width="1440" height="1329" fill="white" transform="translate(-509 -530)"/>
</clipPath>
</defs>
</svg>
