<svg width="60" height="60" viewBox="0 0 60 60" fill="none" xmlns="http://www.w3.org/2000/svg">
<rect width="60" height="60" rx="24" fill="#D9F7E8"/>
<g opacity="0.5">
<path d="M42.4444 40.8889H19.1111V17.5556C19.1111 16.6964 18.4147 16 17.5556 16C16.6964 16 16 16.6964 16 17.5556V42.4444C16 43.3036 16.6964 44 17.5556 44H42.4444C43.3036 44 44 43.3036 44 42.4444C44 41.5853 43.3036 40.8889 42.4444 40.8889Z" fill="#00A355"/>
<path d="M22.7138 34.2469C23.3406 34.8345 24.325 34.8027 24.9126 34.176L29.7306 29.0367L34.4347 33.0509C35.1059 33.6237 36.1186 33.524 36.6653 32.8315L43.6653 23.9648C44.1977 23.2905 44.0826 22.3123 43.4083 21.78C42.734 21.2477 41.7558 21.3627 41.2235 22.037L35.2248 29.6353L30.6208 25.7065C29.9888 25.1672 29.0445 25.2198 28.4762 25.8259L22.6429 32.0481C22.0553 32.6749 22.0871 33.6593 22.7138 34.2469Z" fill="#00A355"/>
</g>
</svg>
