<svg width="24" height="24" viewBox="0 0 24 24" fill="none" xmlns="http://www.w3.org/2000/svg">
<rect width="24" height="24" rx="4" fill="#EEF0F2"/>
<path fill-rule="evenodd" clip-rule="evenodd" d="M19 12C19 15.866 15.866 19 12 19C8.13401 19 5 15.866 5 12C5 8.13401 8.13401 5 12 5C15.866 5 19 8.13401 19 12ZM11.4638 13.1238C11.4281 12.8803 11.443 12.6635 11.5083 12.4734C11.5736 12.2774 11.6627 12.1022 11.7756 11.9478C11.8944 11.7874 12.0161 11.6419 12.1408 11.5113C12.2656 11.3747 12.3695 11.244 12.4527 11.1193C12.5418 10.9886 12.5863 10.8579 12.5863 10.7273C12.5863 10.5431 12.5299 10.4036 12.417 10.3085C12.3101 10.2135 12.1676 10.166 11.9894 10.166C11.8231 10.166 11.6746 10.2046 11.5439 10.2818C11.4192 10.359 11.2975 10.457 11.1787 10.5758L10.457 9.91653C10.6649 9.67302 10.9144 9.47702 11.2054 9.32853C11.4964 9.18005 11.8142 9.1058 12.1587 9.1058C12.4794 9.1058 12.7645 9.15926 13.0139 9.26617C13.2693 9.37308 13.4713 9.53938 13.6198 9.76508C13.7682 9.99077 13.8425 10.2788 13.8425 10.6293C13.8425 10.849 13.7979 11.045 13.7088 11.2173C13.6198 11.3836 13.5099 11.538 13.3792 11.6805C13.2485 11.8231 13.1208 11.9656 12.9961 12.1082C12.8714 12.2448 12.7704 12.3962 12.6932 12.5625C12.616 12.7229 12.5893 12.91 12.613 13.1238H11.4638ZM11.4727 15.0571C11.6212 15.2115 11.8082 15.2887 12.0339 15.2887C12.2596 15.2887 12.4467 15.2115 12.5952 15.0571C12.7496 14.8967 12.8268 14.7007 12.8268 14.4691C12.8268 14.2315 12.7496 14.0355 12.5952 13.8811C12.4467 13.7207 12.2596 13.6405 12.0339 13.6405C11.8082 13.6405 11.6212 13.7207 11.4727 13.8811C11.3242 14.0355 11.2499 14.2315 11.2499 14.4691C11.2499 14.7007 11.3242 14.8967 11.4727 15.0571Z" fill="#747677"/>
</svg>
