<svg width="60" height="60" viewBox="0 0 60 60" fill="none" xmlns="http://www.w3.org/2000/svg">
<rect width="60" height="60" rx="24" fill="#DCDCF7"/>
<path d="M25.9998 28.6667C23.0543 28.6667 20.6665 26.2789 20.6665 23.3333C20.6665 20.3878 23.0543 18 25.9998 18C28.9454 18 31.3332 20.3878 31.3332 23.3333C31.3332 26.2789 28.9454 28.6667 25.9998 28.6667Z" fill="#8280FF"/>
<path d="M37.9998 32.6667C35.7907 32.6667 33.9998 30.8758 33.9998 28.6667C33.9998 26.4575 35.7907 24.6667 37.9998 24.6667C40.209 24.6667 41.9998 26.4575 41.9998 28.6667C41.9998 30.8758 40.209 32.6667 37.9998 32.6667Z" fill="#8280FF"/>
<path d="M14.0009 40.9329C14.5177 34.5693 19.6826 31.334 25.9778 31.334C32.3616 31.334 37.6065 34.3916 37.9972 40.934C38.0128 41.1946 37.9972 42.0007 36.9956 42.0007H14.97C14.6356 42.0007 13.9727 41.2796 14.0009 40.9329Z" fill="#8280FF"/>
<path d="M40.1333 42.0007L45.2746 42.0007C45.998 42.0007 46.0092 41.3961 45.998 41.2007C45.7189 36.3475 42.0103 34.0511 37.4683 34.0015C39.1417 36.2298 40.1333 38.9994 40.1333 42.0007Z" fill="#8280FF"/>
</svg>
