<svg width="60" height="60" viewBox="0 0 60 60" fill="none" xmlns="http://www.w3.org/2000/svg">
<rect width="60" height="60" rx="24" fill="#FFDED1"/>
<g opacity="0.901274">
<path d="M21.8524 15.3843C21.9477 14.9846 22.4577 14.8642 22.7218 15.1789L24.5197 17.3217C26.2029 16.605 28.0551 16.2084 30 16.2084C37.732 16.2084 44 22.4764 44 30.2084C44 37.9404 37.732 44.2084 30 44.2084C22.268 44.2084 16 37.9404 16 30.2084C16 28.8952 16.1808 27.6243 16.5188 26.4191L19.0864 27.1393C18.809 28.1285 18.6667 29.1576 18.6667 30.2084C18.6667 36.4676 23.7408 41.5417 30 41.5417C36.2592 41.5417 41.3333 36.4676 41.3333 30.2084C41.3333 23.9492 36.2592 18.8751 30 18.8751C28.7317 18.8751 27.4965 19.083 26.3316 19.481L28.133 21.6278C28.3976 21.9431 28.1892 22.4252 27.7783 22.4484L20.7336 22.8477C20.3993 22.8666 20.1412 22.5581 20.2189 22.2324L21.8524 15.3843Z" fill="#FF9066"/>
<path d="M29.1294 23.541C28.8682 23.541 28.651 23.7422 28.6309 24.0027L28.0315 31.7957C28.0131 32.0348 28.167 32.2533 28.3984 32.3164L34.7015 34.0354C35.0196 34.1222 35.3331 33.8827 35.3331 33.5531V33.1645C35.3331 32.9851 35.237 32.8194 35.0812 32.7304L30.6664 30.2077L30.0448 23.9913C30.0192 23.7357 29.8041 23.541 29.5473 23.541H29.1294Z" fill="#FF9066"/>
</g>
</svg>
