<svg width="24" height="24" viewBox="0 0 24 24" fill="none" xmlns="http://www.w3.org/2000/svg">
<path d="M2.4974 6.50101C2.8874 6.11101 3.5174 6.11101 3.9074 6.50101L8.4974 11.091C8.8874 11.481 9.5174 11.481 9.9074 11.091L11.0774 9.92102C12.2474 8.75102 14.1474 8.75102 15.3174 9.92102L19.4974 14.091L20.9374 12.651C21.2474 12.341 21.7874 12.561 21.7874 13.001V17.291C21.7974 17.571 21.5774 17.791 21.2974 17.791H17.0074C16.5574 17.791 16.3374 17.251 16.6574 16.941L18.0974 15.501L13.9274 11.331C13.5374 10.941 12.9074 10.941 12.5174 11.331L11.3474 12.501C10.1774 13.671 8.2774 13.671 7.1074 12.501L2.4974 7.91102C2.1174 7.52102 2.1174 6.88101 2.4974 6.50101Z" fill="#EB5757"/>
</svg>
