<svg width="24" height="24" viewBox="0 0 24 24" fill="none" xmlns="http://www.w3.org/2000/svg">
<path d="M2.4974 17.499C2.8874 17.889 3.5174 17.889 3.9074 17.499L8.4974 12.909C8.8874 12.519 9.5174 12.519 9.9074 12.909L11.0774 14.079C12.2474 15.249 14.1474 15.249 15.3174 14.079L19.4974 9.90898L20.9374 11.349C21.2474 11.659 21.7874 11.439 21.7874 10.999V6.70898C21.7974 6.42898 21.5774 6.20898 21.2974 6.20898H17.0074C16.5574 6.20898 16.3374 6.74898 16.6574 7.05898L18.0974 8.49898L13.9274 12.669C13.5374 13.059 12.9074 13.059 12.5174 12.669L11.3474 11.499C10.1774 10.329 8.2774 10.329 7.1074 11.499L2.4974 16.089C2.1174 16.479 2.1174 17.119 2.4974 17.499Z" fill="#00A355"/>
</svg>
