<svg width="40" height="43" viewBox="0 0 40 43" fill="none" xmlns="http://www.w3.org/2000/svg">
<rect width="40" height="43" fill="#F5F5F5"/>
<g clip-path="url(#clip0_751_38745)">
<rect width="1440" height="812" transform="translate(-403 -195)" fill="white"/>
<rect x="-28" y="-23" width="924" height="535" rx="10" fill="white"/>
<rect y="0.941406" width="40" height="41.6342" rx="20" fill="#0B68E1"/>
<path d="M23.8 24.7414C23.6409 24.7414 23.4883 24.8046 23.3757 24.9171C23.2632 25.0297 23.2 25.1823 23.2 25.3414C23.2 25.5005 23.2632 25.6531 23.3757 25.7657C23.4883 25.8782 23.6409 25.9414 23.8 25.9414H26.2C26.3591 25.9414 26.5117 25.8782 26.6243 25.7657C26.7368 25.6531 26.8 25.5005 26.8 25.3414C26.8 25.1823 26.7368 25.0297 26.6243 24.9171C26.5117 24.8046 26.3591 24.7414 26.2 24.7414H23.8ZM10 17.2414C10 16.3662 10.3477 15.5268 10.9665 14.908C11.5854 14.2891 12.4248 13.9414 13.3 13.9414H25.9C26.7752 13.9414 27.6146 14.2891 28.2335 14.908C28.8523 15.5268 29.2 16.3662 29.2 17.2414V25.0414C29.2 25.9166 28.8523 26.756 28.2335 27.3749C27.6146 27.9937 26.7752 28.3414 25.9 28.3414H13.3C12.4248 28.3414 11.5854 27.9937 10.9665 27.3749C10.3477 26.756 10 25.9166 10 25.0414V17.2414ZM13.3 15.1414C12.743 15.1414 12.2089 15.3627 11.8151 15.7565C11.4212 16.1503 11.2 16.6845 11.2 17.2414V18.7414H28V17.2414C28 16.6845 27.7788 16.1503 27.3849 15.7565C26.9911 15.3627 26.457 15.1414 25.9 15.1414H13.3ZM28 19.9414H11.2V25.0414C11.2 26.2006 12.1408 27.1414 13.3 27.1414H25.9C26.457 27.1414 26.9911 26.9202 27.3849 26.5263C27.7788 26.1325 28 25.5984 28 25.0414V19.9414Z" fill="white"/>
</g>
<defs>
<clipPath id="clip0_751_38745">
<rect width="1440" height="812" fill="white" transform="translate(-403 -195)"/>
</clipPath>
</defs>
</svg>
