<svg width="24" height="24" viewBox="0 0 24 24" fill="none" xmlns="http://www.w3.org/2000/svg">
<path fill-rule="evenodd" clip-rule="evenodd" d="M9.64913 5.66317C9.42438 5.15868 9.64454 4.55333 10.1409 4.31109L14.6758 2.09765C15.1721 1.8554 15.7567 2.06799 15.9814 2.57247L17.2767 5.47986C17.5014 5.98435 17.2812 6.5897 16.7849 6.83194L12.25 9.04538C11.7537 9.28763 11.1691 9.07504 10.9444 8.57056L9.64913 5.66317ZM12.0632 11.2639C11.8384 10.7594 12.0586 10.1541 12.5549 9.91183L17.9945 7.25686C18.4908 7.01461 19.0753 7.2272 19.3001 7.73169L20.5953 10.6391C20.8201 11.1436 20.5999 11.7489 20.1036 11.9912L14.6641 14.6461C14.1677 14.8884 13.5832 14.6758 13.3584 14.1713L12.0632 11.2639ZM6.36429 5.21289L3.44472 6.74085C2.95167 6.9989 2.35212 6.78971 2.10559 6.27363C1.85907 5.75755 2.05892 5.13 2.55197 4.87196L5.54635 3.30484C5.92806 3.10507 6.35527 2.99581 6.79737 3.08221C7.24456 3.1696 7.56384 3.42907 7.77582 3.68151C7.97819 3.92252 8.11161 4.19042 8.1982 4.38234C8.24228 4.48006 8.2816 4.57528 8.31237 4.64982L8.31238 4.64986L8.31423 4.65431C8.34828 4.7368 8.36996 4.78892 8.3892 4.83072L8.39397 4.84109L13.0924 15.656C13.3143 16.1273 13.8356 16.3518 14.3087 16.1834L20.5818 13.1387C21.0819 12.896 21.6753 13.1236 21.9071 13.647C22.139 14.1705 21.9216 14.7916 21.4215 15.0343L15.0743 18.115L15.0391 18.1288C14.9331 18.1704 14.8262 18.2053 14.7188 18.2337C14.8829 18.5818 14.9751 18.9736 14.9751 19.388C14.9751 20.8305 13.8579 21.9999 12.4798 21.9999C11.1017 21.9999 9.98447 20.8305 9.98447 19.388C9.98447 18.3002 10.6198 17.3678 11.5232 16.975C11.4364 16.843 11.3582 16.7026 11.2898 16.554L11.2851 16.5437L6.58545 5.72599C6.5486 5.64513 6.51349 5.56008 6.48558 5.49246L6.3931 5.27459C6.38287 5.25193 6.37327 5.23142 6.36429 5.21289ZM12.4798 19.9104C12.7554 19.9104 12.9789 19.6765 12.9789 19.388C12.9789 19.0995 12.7554 18.8657 12.4798 18.8657C12.2042 18.8657 11.9807 19.0995 11.9807 19.388C11.9807 19.6765 12.2042 19.9104 12.4798 19.9104Z" fill="currentColor"/>
</svg>
