<svg width="17" height="12" viewBox="0 0 17 12" fill="none" xmlns="http://www.w3.org/2000/svg">
<rect width="17" height="12" fill="#F5F5F5"/>
<g clip-path="url(#clip0_751_38745)">
<rect width="1440" height="812" transform="translate(-927 -745)" fill="white"/>
<path d="M0.328 11V0.535999H7.144V2.104H2.184V4.776H3.896C4.64267 4.776 5.30933 4.872 5.896 5.064C6.49333 5.256 6.96267 5.57067 7.304 6.008C7.656 6.43467 7.832 7.016 7.832 7.752C7.832 8.50933 7.66667 9.128 7.336 9.608C7.00533 10.088 6.54667 10.44 5.96 10.664C5.384 10.888 4.71733 11 3.96 11H0.328ZM2.184 9.56H3.736C5.25067 9.56 6.008 8.968 6.008 7.784C6.008 7.19733 5.81067 6.78133 5.416 6.536C5.032 6.29067 4.46133 6.168 3.704 6.168H2.184V9.56ZM9.3975 11.192C9.08817 11.192 8.81083 11.1387 8.5655 11.032L8.8855 9.368C8.93883 9.37867 8.9975 9.39467 9.0615 9.416C9.1255 9.42667 9.19483 9.432 9.2695 9.432C9.51483 9.432 9.7175 9.32 9.8775 9.096C10.0375 8.872 10.1495 8.51467 10.2135 8.024C10.3202 7.20267 10.4162 6.38667 10.5015 5.576C10.5975 4.76533 10.6882 3.95467 10.7735 3.144H16.1015V11H14.2615V4.6H12.2455C12.1708 5.25067 12.0908 5.90667 12.0055 6.568C11.9308 7.21867 11.8508 7.86933 11.7655 8.52C11.6482 9.39467 11.3922 10.0613 10.9975 10.52C10.6028 10.968 10.0695 11.192 9.3975 11.192Z" fill="black"/>
</g>
<defs>
<clipPath id="clip0_751_38745">
<rect width="1440" height="812" fill="white" transform="translate(-927 -745)"/>
</clipPath>
</defs>
</svg>
