<svg width="29" height="12" viewBox="0 0 29 12" fill="none" xmlns="http://www.w3.org/2000/svg">
<rect width="29" height="12" fill="#F5F5F5"/>
<g clip-path="url(#clip0_751_38745)">
<rect width="1440" height="812" transform="translate(-1074 -745)" fill="white"/>
<path d="M5.392 11.192C4.48533 11.192 3.68533 10.9733 2.992 10.536C2.29867 10.088 1.75467 9.45867 1.36 8.648C0.976 7.82667 0.784 6.85067 0.784 5.72C0.784 4.58933 0.976 3.624 1.36 2.824C1.75467 2.024 2.29867 1.41067 2.992 0.983999C3.68533 0.557333 4.48533 0.344 5.392 0.344C6.30933 0.344 7.11467 0.557333 7.808 0.983999C8.50133 1.41067 9.04 2.024 9.424 2.824C9.81867 3.624 10.016 4.58933 10.016 5.72C10.016 6.85067 9.81867 7.82667 9.424 8.648C9.04 9.45867 8.50133 10.088 7.808 10.536C7.11467 10.9733 6.30933 11.192 5.392 11.192ZM5.392 9.576C6.21333 9.576 6.86933 9.22933 7.36 8.536C7.85067 7.832 8.096 6.89333 8.096 5.72C8.096 4.54667 7.85067 3.62933 7.36 2.968C6.86933 2.296 6.21333 1.96 5.392 1.96C4.57067 1.96 3.91467 2.296 3.424 2.968C2.93333 3.62933 2.688 4.54667 2.688 5.72C2.688 6.89333 2.93333 7.832 3.424 8.536C3.91467 9.22933 4.57067 9.576 5.392 9.576ZM13.7994 11V2.104H10.7754V0.535999H18.6794V2.104H15.6554V11H13.7994ZM20.4218 11V0.535999H28.2298V11H26.3738V2.104H22.2778V11H20.4218Z" fill="black"/>
</g>
<defs>
<clipPath id="clip0_751_38745">
<rect width="1440" height="812" fill="white" transform="translate(-1074 -745)"/>
</clipPath>
</defs>
</svg>
