<svg width="18" height="15" viewBox="0 0 18 15" fill="none" xmlns="http://www.w3.org/2000/svg">
<rect width="18" height="15" fill="#F5F5F5"/>
<g clip-path="url(#clip0_751_38745)">
<rect width="1440" height="812" transform="translate(-1307 -745)" fill="white"/>
<path d="M0.328 11V0.535999H8.136V11H6.28V2.104H2.184V11H0.328ZM10.6368 14.104V3.144H12.1568L12.2848 3.976H12.3488C12.6794 3.69867 13.0474 3.45867 13.4528 3.256C13.8688 3.05333 14.2901 2.952 14.7168 2.952C15.6981 2.952 16.4554 3.31467 16.9888 4.04C17.5328 4.76533 17.8048 5.736 17.8048 6.952C17.8048 7.848 17.6448 8.616 17.3248 9.256C17.0048 9.88533 16.5888 10.3653 16.0768 10.696C15.5754 11.0267 15.0314 11.192 14.4448 11.192C14.1034 11.192 13.7621 11.1173 13.4208 10.968C13.0794 10.808 12.7488 10.5947 12.4288 10.328L12.4768 11.64V14.104H10.6368ZM14.0608 9.672C14.5834 9.672 15.0208 9.44267 15.3728 8.984C15.7248 8.52533 15.9008 7.85333 15.9008 6.968C15.9008 6.17867 15.7674 5.56533 15.5008 5.128C15.2341 4.69067 14.8021 4.472 14.2048 4.472C13.6501 4.472 13.0741 4.76533 12.4768 5.352V9.016C12.7648 9.25067 13.0421 9.42133 13.3088 9.528C13.5754 9.624 13.8261 9.672 14.0608 9.672Z" fill="#FF3B30"/>
</g>
<defs>
<clipPath id="clip0_751_38745">
<rect width="1440" height="812" fill="white" transform="translate(-1307 -745)"/>
</clipPath>
</defs>
</svg>
