<svg width="155" height="40" viewBox="0 0 155 40" fill="none" xmlns="http://www.w3.org/2000/svg"><rect width="155" height="40" fill="#F5F5F5"/><g clip-path="url(#clip0_751_38745)"><rect width="1440" height="812" transform="translate(-16 -16)" fill="white"/><rect width="257" height="812" transform="translate(-16 -16)" fill="#1C1917"/><rect width="256" height="812" transform="translate(-16 -16)" fill="#1C1917"/><rect width="81" height="40" rx="20" fill="#BFFA00"/><path fill-rule="evenodd" clip-rule="evenodd" d="M65.1223 17.8466V24.9249H66.5001V17.8466H65.1223ZM65.2006 16.5149C65.3726 16.6746 65.5785 16.7545 65.8181 16.7545C66.0577 16.7545 66.262 16.6746 66.431 16.5149C66.603 16.3521 66.689 16.1585 66.689 15.9342C66.689 15.7069 66.603 15.5134 66.431 15.3536C66.262 15.1908 66.0577 15.1094 65.8181 15.1094C65.5785 15.1094 65.3726 15.1908 65.2006 15.3536C65.0316 15.5134 64.9471 15.7069 64.9471 15.9342C64.9471 16.1585 65.0316 16.3521 65.2006 16.5149ZM43.1403 24.4683C43.6349 24.7725 44.214 24.9246 44.8776 24.9246C45.5412 24.9246 46.1203 24.7725 46.6149 24.4683C47.1095 24.1642 47.4935 23.7387 47.7669 23.1919C48.0404 22.645 48.1771 22.006 48.1771 21.2749C48.1771 20.5406 48.0404 19.8985 47.7669 19.3486C47.4935 18.7987 47.1095 18.3717 46.6149 18.0675C46.1203 17.7634 45.5412 17.6113 44.8776 17.6113C44.214 17.6113 43.6349 17.7634 43.1403 18.0675C42.6457 18.3717 42.2617 18.7987 41.9883 19.3486C41.7148 19.8985 41.5781 20.5406 41.5781 21.2749C41.5781 22.006 41.7148 22.645 41.9883 23.1919C42.2617 23.7387 42.6457 24.1642 43.1403 24.4683ZM45.9513 23.4269C45.6687 23.6542 45.3123 23.7679 44.8822 23.7679C44.449 23.7679 44.0896 23.6542 43.8039 23.4269C43.5213 23.1995 43.3108 22.8969 43.1726 22.5191C43.0374 22.1412 42.9698 21.7249 42.9698 21.2702C42.9698 20.8186 43.0374 20.4039 43.1726 20.026C43.3108 19.6451 43.5213 19.3394 43.8039 19.109C44.0896 18.8786 44.449 18.7634 44.8822 18.7634C45.3123 18.7634 45.6687 18.8786 45.9513 19.109C46.2339 19.3394 46.4429 19.6451 46.578 20.026C46.7163 20.4039 46.7854 20.8186 46.7854 21.2702C46.7854 21.7249 46.7163 22.1412 46.578 22.5191C46.4429 22.8969 46.2339 23.1995 45.9513 23.4269ZM50.9714 24.9246V20.722C50.9714 20.3472 51.042 20.0277 51.1833 19.7634C51.3277 19.4962 51.5228 19.2934 51.7686 19.1552C52.0174 19.0169 52.3016 18.9478 52.6211 18.9478C53.0881 18.9478 53.4552 19.0937 53.7225 19.3856C53.9897 19.6744 54.1234 20.0753 54.1234 20.5883V24.9246H55.5012V20.4224C55.5012 19.8387 55.4014 19.3487 55.2017 18.9524C55.002 18.5561 54.7209 18.2581 54.3584 18.0584C53.9959 17.8557 53.5735 17.7543 53.0911 17.7543C52.5597 17.7543 52.1188 17.8679 51.7686 18.0953C51.4214 18.3226 51.1664 18.6237 51.0036 18.9985H50.9161V17.8464H49.5935V24.9246H50.9714ZM63.5305 17.8465L60.9637 24.9247H59.4891L56.9177 17.8465H58.3969L60.1895 23.2934H60.2633L62.0512 17.8465H63.5305Z" fill="black"/><path d="M20.0812 36.1719C29.0856 36.1719 36.385 28.9315 36.385 20C36.385 11.0685 29.0856 3.82812 20.0812 3.82812C11.0768 3.82812 3.77734 11.0685 3.77734 20C3.77734 28.9315 11.0768 36.1719 20.0812 36.1719Z" fill="black"/><path d="M11.2493 26.1099L22.5615 8.46575C22.5639 8.46015 22.5674 8.45508 22.5718 8.45081C22.5761 8.44655 22.5813 8.44317 22.587 8.44089C22.5927 8.43861 22.5987 8.43746 22.6049 8.4375C22.611 8.43755 22.617 8.43879 22.6227 8.44116C22.6283 8.44353 22.6335 8.44697 22.6378 8.4513C22.6421 8.45563 22.6454 8.46076 22.6478 8.4664C22.6501 8.47203 22.6512 8.47806 22.6512 8.48413C22.6511 8.49021 22.6499 8.49622 22.6475 8.50182L19.269 19.8438C18.9084 21.055 18.2653 22.165 17.3918 23.0838C16.5183 24.0027 15.4389 24.7046 14.241 25.1327L11.3088 26.1787C11.2995 26.1845 11.2883 26.1867 11.2774 26.185C11.2665 26.1833 11.2566 26.1778 11.2494 26.1695C11.2422 26.1612 11.2383 26.1507 11.2383 26.1397C11.2383 26.1288 11.2422 26.1182 11.2493 26.1099Z" fill="#BFFA00"/><path d="M28.9083 13.8853L17.5994 31.5294C17.597 31.535 17.5935 31.5401 17.5892 31.5443C17.5848 31.5486 17.5796 31.552 17.574 31.5542C17.5683 31.5565 17.5622 31.5577 17.5561 31.5576C17.5499 31.5576 17.5439 31.5563 17.5382 31.554C17.5326 31.5516 17.5275 31.5482 17.5232 31.5438C17.5189 31.5395 17.5155 31.5344 17.5132 31.5287C17.5109 31.5231 17.5097 31.5171 17.5098 31.511C17.5098 31.5049 17.5111 31.4989 17.5135 31.4933L20.8919 20.1546C21.2521 18.9428 21.895 17.8322 22.7685 16.9127C23.6421 15.9933 24.7217 15.2908 25.9199 14.8624L28.8521 13.8164C28.8614 13.8123 28.8718 13.8114 28.8816 13.8138C28.8915 13.8162 28.9003 13.8217 28.9067 13.8295C28.9131 13.8374 28.9167 13.8471 28.917 13.8571C28.9173 13.8672 28.9142 13.8771 28.9083 13.8853Z" fill="#BFFA00"/><path d="M87.328 26V15.536H94.144V17.104H89.184V19.776H90.896C91.6427 19.776 92.3093 19.872 92.896 20.064C93.4933 20.256 93.9627 20.5707 94.304 21.008C94.656 21.4347 94.832 22.016 94.832 22.752C94.832 23.5093 94.6667 24.128 94.336 24.608C94.0053 25.088 93.5467 25.44 92.96 25.664C92.384 25.888 91.7173 26 90.96 26H87.328ZM89.184 24.56H90.736C92.2507 24.56 93.008 23.968 93.008 22.784C93.008 22.1973 92.8107 21.7813 92.416 21.536C92.032 21.2907 91.4613 21.168 90.704 21.168H89.184V24.56ZM96.7655 26V15.536H98.6055V20.08C98.6055 20.6667 98.5788 21.2747 98.5255 21.904C98.4722 22.5333 98.4188 23.1147 98.3655 23.648H98.4295L99.5175 21.424L102.798 15.536H104.766V26H102.926V21.424C102.926 20.8373 102.952 20.24 103.006 19.632C103.07 19.024 103.123 18.4427 103.166 17.888H103.102L102.03 20.096L98.7335 26H96.7655ZM110.51 26.192C109.795 26.192 109.118 26.0747 108.478 25.84C107.838 25.6053 107.246 25.2267 106.702 24.704L107.71 23.44C108.147 23.8453 108.584 24.1387 109.022 24.32C109.47 24.4907 109.96 24.576 110.494 24.576C111.102 24.576 111.608 24.4267 112.014 24.128C112.43 23.8293 112.638 23.4027 112.638 22.848C112.638 22.2933 112.435 21.888 112.03 21.632C111.635 21.376 111.054 21.248 110.286 21.248H108.99V19.856H109.966C110.734 19.856 111.283 19.728 111.614 19.472C111.955 19.216 112.126 18.848 112.126 18.368C112.126 17.888 111.955 17.536 111.614 17.312C111.283 17.0773 110.867 16.96 110.366 16.96C109.918 16.96 109.507 17.04 109.134 17.2C108.76 17.3493 108.403 17.5627 108.062 17.84L107.118 16.608C107.534 16.2133 108.024 15.904 108.59 15.68C109.166 15.456 109.774 15.344 110.414 15.344C111.512 15.344 112.371 15.5893 112.99 16.08C113.619 16.5707 113.934 17.2427 113.934 18.096C113.934 18.6187 113.811 19.088 113.566 19.504C113.32 19.9093 112.963 20.208 112.494 20.4V20.464C113.059 20.592 113.528 20.8747 113.902 21.312C114.275 21.7493 114.462 22.304 114.462 22.976C114.462 23.6693 114.286 24.256 113.934 24.736C113.582 25.216 113.107 25.5787 112.51 25.824C111.912 26.0693 111.246 26.192 110.51 26.192ZM116.359 26V15.536H118.215V19.744H122.455V15.536H124.311V26H122.455V21.36H118.215V26H116.359ZM126.969 26V15.536H133.273V17.104H128.825V19.776H132.585V21.344H128.825V24.432H133.433V26H126.969ZM139.754 26.192C138.879 26.192 138.085 25.984 137.37 25.568C136.655 25.152 136.085 24.544 135.658 23.744C135.242 22.9333 135.034 21.952 135.034 20.8C135.034 19.6587 135.247 18.6827 135.674 17.872C136.111 17.0507 136.693 16.4267 137.418 16C138.143 15.5627 138.943 15.344 139.818 15.344C140.479 15.344 141.066 15.4773 141.578 15.744C142.09 16.0107 142.511 16.32 142.842 16.672L141.85 17.872C141.583 17.5947 141.285 17.376 140.954 17.216C140.634 17.0453 140.271 16.96 139.866 16.96C139.301 16.96 138.794 17.1147 138.346 17.424C137.909 17.7227 137.562 18.1547 137.306 18.72C137.061 19.2853 136.938 19.9627 136.938 20.752C136.938 21.9467 137.199 22.8853 137.722 23.568C138.245 24.24 138.943 24.576 139.818 24.576C140.287 24.576 140.703 24.48 141.066 24.288C141.429 24.0853 141.759 23.824 142.058 23.504L143.05 24.672C142.623 25.1627 142.133 25.5413 141.578 25.808C141.034 26.064 140.426 26.192 139.754 26.192Z" fill="#BFFA00"/></g><defs><clipPath id="clip0_751_38745"><rect width="1440" height="812" fill="white" transform="translate(-16 -16)"/></clipPath></defs></svg>