<svg width="41" height="40" viewBox="0 0 41 40" fill="none" xmlns="http://www.w3.org/2000/svg">
<rect width="41" height="40" fill="#F5F5F5"/>
<rect width="1440" height="812" transform="translate(-20 -16)" fill="white"/>
<rect width="80" height="812" transform="translate(-20 -16)" fill="#1C1917"/>
<rect y="0.0507812" width="40" height="39.8985" rx="19.9492" fill="#BFFA00"/>
<path d="M20.0812 36.1719C29.0856 36.1719 36.385 28.9315 36.385 20C36.385 11.0685 29.0856 3.82812 20.0812 3.82812C11.0768 3.82812 3.77734 11.0685 3.77734 20C3.77734 28.9315 11.0768 36.1719 20.0812 36.1719Z" fill="black"/>
<path d="M11.2484 26.112L22.5606 8.46789C22.5629 8.46229 22.5664 8.45721 22.5708 8.45295C22.5752 8.44868 22.5803 8.44531 22.586 8.44303C22.5917 8.44074 22.5978 8.43959 22.6039 8.43964C22.61 8.43968 22.6161 8.44093 22.6217 8.44329C22.6274 8.44566 22.6325 8.44911 22.6368 8.45344C22.6411 8.45777 22.6445 8.4629 22.6468 8.46853C22.6491 8.47416 22.6502 8.48019 22.6502 8.48627C22.6501 8.49235 22.6489 8.49836 22.6465 8.50396L19.2681 19.8459C18.9074 21.0571 18.2643 22.1671 17.3908 23.086C16.5173 24.0048 15.4379 24.7067 14.24 25.1349L11.3079 26.1809C11.2985 26.1866 11.2873 26.1888 11.2764 26.1871C11.2655 26.1855 11.2556 26.18 11.2484 26.1717C11.2413 26.1634 11.2373 26.1528 11.2373 26.1419C11.2373 26.1309 11.2412 26.1203 11.2484 26.112Z" fill="#BFFA00"/>
<path d="M28.9073 13.888L17.5984 31.5321C17.596 31.5377 17.5926 31.5428 17.5882 31.5471C17.5838 31.5513 17.5787 31.5547 17.573 31.557C17.5673 31.5593 17.5612 31.5604 17.5551 31.5604C17.549 31.5603 17.5429 31.5591 17.5373 31.5567C17.5316 31.5544 17.5265 31.5509 17.5222 31.5466C17.5179 31.5422 17.5145 31.5371 17.5122 31.5315C17.5099 31.5259 17.5087 31.5198 17.5088 31.5137C17.5088 31.5077 17.5101 31.5017 17.5125 31.4961L20.8909 20.1574C21.2511 18.9456 21.894 17.8349 22.7675 16.9155C23.6411 15.996 24.7207 15.2936 25.9189 14.8651L28.8511 13.8191C28.8604 13.8151 28.8708 13.8142 28.8807 13.8165C28.8905 13.8189 28.8994 13.8244 28.9057 13.8323C28.9121 13.8401 28.9158 13.8498 28.916 13.8599C28.9163 13.8699 28.9133 13.8798 28.9073 13.888Z" fill="#BFFA00"/>
</svg>
