<svg width="40" height="40" viewBox="0 0 40 40" fill="none" xmlns="http://www.w3.org/2000/svg">
<rect width="40" height="40" fill="#F5F5F5"/>
<g clip-path="url(#clip0_751_38745)">
<rect width="1440" height="1946" transform="translate(-664 -1028)" fill="white"/>
<rect width="1440" height="1946" transform="translate(-664 -1028)" fill="black" fill-opacity="0.5"/>
<rect width="800" height="1946" transform="translate(-24 -1028)" fill="white"/>
<g clip-path="url(#clip1_751_38745)">
<rect width="40" height="40" rx="20" fill="#D9D9D9" fill-opacity="0.5"/>
<path d="M3.09961 40.24L36.8105 40.2399C36.4551 36.0645 32.893 32.8198 28.6253 32.9383L26.0906 32.8281C24.6533 32.7656 23.5993 31.4525 23.8493 30.0357L24.0618 28.8312L24.3582 27.6456C24.4084 27.445 24.4842 27.2528 24.5831 27.0734C26.0137 25.8575 27.1192 24.0729 27.7042 21.9169C28.3165 21.5604 29.0805 19.9199 29.0805 19.2479C29.0805 18.5566 28.8898 17.7942 28.1595 17.6686C28.0258 11.9302 26.1053 7.38281 19.9529 7.38281C19.9524 7.38281 19.9516 7.38281 19.9512 7.38281C13.8022 7.385 11.8826 11.9316 11.749 17.6686C11.0187 17.7942 10.8279 18.5566 10.8279 19.2479C10.8279 19.9199 11.5919 21.5604 12.2043 21.9169C12.7897 24.0745 13.8963 25.8601 15.3284 27.0759C15.4266 27.2546 15.5019 27.446 15.5518 27.6456L15.8482 28.8312L16.0608 30.0357C16.3108 31.4525 15.2568 32.7657 13.8195 32.8282L11.2848 32.9384C7.01713 32.8198 3.45505 36.0645 3.09961 40.24Z" fill="#D8D9DD"/>
</g>
</g>
<defs>
<clipPath id="clip0_751_38745">
<rect width="1440" height="1946" fill="white" transform="translate(-664 -1028)"/>
</clipPath>
<clipPath id="clip1_751_38745">
<rect width="40" height="40" rx="20" fill="white"/>
</clipPath>
</defs>
</svg>
