<svg width="29" height="30" viewBox="0 0 29 30" fill="none" xmlns="http://www.w3.org/2000/svg">
<rect width="29" height="30" fill="#F5F5F5"/>
<rect width="1440" height="812" transform="translate(-77 -99)" fill="white"/>
<rect y="1" width="56.9613" height="28" rx="14" fill="#0B68E1"/>
<path d="M14.1215 26.3699C20.4536 26.3699 25.5868 21.2783 25.5868 14.9975C25.5868 8.71663 20.4536 3.625 14.1215 3.625C7.78943 3.625 2.65625 8.71663 2.65625 14.9975C2.65625 21.2783 7.78943 26.3699 14.1215 26.3699Z" fill="white"/>
<path d="M7.91012 19.2949L15.8651 6.88705C15.8668 6.88312 15.8693 6.87955 15.8723 6.87655C15.8754 6.87355 15.879 6.87118 15.883 6.86957C15.887 6.86797 15.8913 6.86716 15.8956 6.86719C15.8999 6.86722 15.9042 6.86809 15.9082 6.86976C15.9121 6.87143 15.9157 6.87385 15.9187 6.87689C15.9218 6.87994 15.9242 6.88355 15.9258 6.88751C15.9274 6.89147 15.9282 6.89571 15.9282 6.89998C15.9281 6.90426 15.9273 6.90848 15.9256 6.91242L13.5498 14.8884C13.2962 15.7401 12.8439 16.5207 12.2296 17.1669C11.6154 17.813 10.8563 18.3066 10.0139 18.6077L7.95196 19.3433C7.94536 19.3473 7.93753 19.3489 7.92987 19.3477C7.92221 19.3465 7.91522 19.3426 7.91018 19.3368C7.90513 19.331 7.90235 19.3235 7.90234 19.3158C7.90233 19.3082 7.90509 19.3007 7.91012 19.2949Z" fill="#0B68E1"/>
<path d="M20.3282 10.6996L12.3755 23.1074C12.3739 23.1113 12.3714 23.1149 12.3683 23.1179C12.3653 23.1209 12.3616 23.1233 12.3576 23.1249C12.3536 23.1265 12.3494 23.1273 12.3451 23.1273C12.3408 23.1272 12.3365 23.1264 12.3325 23.1247C12.3286 23.123 12.325 23.1206 12.3219 23.1176C12.3189 23.1145 12.3165 23.1109 12.3149 23.107C12.3133 23.103 12.3125 23.0988 12.3125 23.0945C12.3125 23.0902 12.3134 23.086 12.3151 23.082L14.6909 15.1084C14.9442 14.2562 15.3963 13.4752 16.0106 12.8286C16.6249 12.182 17.3841 11.688 18.2267 11.3867L20.2887 10.6512C20.2953 10.6483 20.3026 10.6477 20.3095 10.6493C20.3164 10.651 20.3226 10.6549 20.3271 10.6604C20.3316 10.6659 20.3342 10.6727 20.3344 10.6798C20.3346 10.6869 20.3324 10.6939 20.3282 10.6996Z" fill="#0B68E1"/>
</svg>
